<?xml version="1.0" encoding="iso-8859-1"?>
<!-- Generator: Adobe Illustrator 23.0.2, SVG Export Plug-In . SVG Version: 6.00 Build 0)  -->
<svg version="1.1" id="Layer_1" xmlns="http://www.w3.org/2000/svg" xmlns:xlink="http://www.w3.org/1999/xlink" x="0px" y="0px"
	 viewBox="0 0 1105.6 1080" style="enable-background:new 0 0 1105.6 1080;" xml:space="preserve">
<g style="opacity:0.3;">
	<g>
		<path style="fill:#C4ECFE;" d="M1026.7,80.7V885H78.8V80.7H1026.7 M1029.8,77.6H75.7v810.5h954.1L1029.8,77.6L1029.8,77.6z"/>
	</g>
	<g>
		<g>
			<g>
				<rect x="306.5" y="77.6" style="fill:#C4ECFE;" width="2.9" height="810.5"/>
			</g>
			<g>
				<rect x="427.9" y="77.6" style="fill:#C4ECFE;" width="2.9" height="810.5"/>
			</g>
			<g>
				<rect x="306.5" y="77.6" style="fill:#C4ECFE;" width="2.9" height="810.5"/>
			</g>
			<g>
				<rect x="185.1" y="77.6" style="fill:#C4ECFE;" width="2.9" height="810.5"/>
			</g>
			<g>
				<rect x="549.3" y="77.6" style="fill:#C4ECFE;" width="2.9" height="810.5"/>
			</g>
			<g>
				<rect x="670.7" y="77.6" style="fill:#C4ECFE;" width="2.9" height="810.5"/>
			</g>
			<g>
				<rect x="790.6" y="77.6" style="fill:#C4ECFE;" width="2.9" height="810.5"/>
			</g>
			<g>
				<rect x="910.5" y="77.6" style="fill:#C4ECFE;" width="2.9" height="810.5"/>
			</g>
		</g>
	</g>
</g>
<g>
	<path style="fill:#F9D5FF;" d="M871,324.5v-10c22.7,0,41.9-34.7,62.2-71.5c24.8-45,53-96,96.7-96v10c-37.8,0-63.3,46.2-88,90.8
		C920.2,287.3,899.6,324.5,871,324.5z"/>
	<g>
		<path style="fill:#F9D5FF;" d="M186.6,248c-17.4,0-30.2-14.7-43.7-30.3c-16.7-19.3-35.6-41.2-67.2-41.2v-10
			c36.2,0,57.6,24.7,74.8,44.6c12.5,14.4,23.3,26.9,36.1,26.9V248z"/>
	</g>
</g>
<g>
	<circle style="fill:#BFD9FF;" cx="160.5" cy="326.8" r="4.1"/>
	<circle style="fill:#BFD9FF;" cx="646.5" cy="726.9" r="4.1"/>
	<circle style="fill:#BFD9FF;" cx="983.7" cy="421.6" r="4.1"/>
	<circle style="fill:#BFD9FF;" cx="478.7" cy="126.1" r="4.1"/>
	<circle style="fill:#BFD9FF;" cx="144" cy="161.3" r="4.1"/>
	<circle style="fill:#BFD9FF;" cx="511.7" cy="657.5" r="3.8"/>
</g>
<g>
	<g>
		<g>
			
				<linearGradient id="SVGID_1_" gradientUnits="userSpaceOnUse" x1="-6241.2178" y1="1132.7" x2="-6241.2178" y2="969.3" gradientTransform="matrix(-1 0 0 -1 -6109.8179 1392)">
				<stop  offset="0.2594" style="stop-color:#CAE6C4"/>
				<stop  offset="0.4772" style="stop-color:#CDE7C7"/>
				<stop  offset="0.6541" style="stop-color:#D6ECD1"/>
				<stop  offset="0.8167" style="stop-color:#E5F3E2"/>
				<stop  offset="0.9698" style="stop-color:#FBFDFA"/>
				<stop  offset="0.9958" style="stop-color:#FFFFFF"/>
			</linearGradient>
			<path style="fill:url(#SVGID_1_);" d="M131.4,422.7c-3,0-5.5-2.5-5.5-5.5V264.8c0-3,2.5-5.5,5.5-5.5s5.5,2.5,5.5,5.5v152.4
				C136.9,420.2,134.4,422.7,131.4,422.7z"/>
		</g>
	</g>
	<g>
		<path style="fill:#CAE6C4;" d="M131.4,305.9c-2.6,0-5-1.9-5.4-4.6c-1.5-9.2-9.7-15.6-19.1-14.9c-3,0.2-5.7-2-5.9-5.1
			s2-5.7,5.1-5.9c15-1.1,28.3,9.2,30.7,24.1c0.5,3-1.5,5.8-4.5,6.3C132,305.9,131.7,305.9,131.4,305.9z"/>
	</g>
	<g>
		<path style="fill:#CAE6C4;" d="M131.4,305.9c-0.3,0-0.6,0-0.9-0.1c-3-0.5-5-3.3-4.5-6.3c2.5-14.8,15.7-25.2,30.7-24.1
			c3,0.2,5.3,2.9,5.1,5.9s-2.9,5.3-5.9,5.1c-9.3-0.7-17.5,5.7-19.1,14.9C136.4,304,134,305.9,131.4,305.9z"/>
	</g>
	<g>
		<path style="fill:#CAE6C4;" d="M131.4,333.5c-2.6,0-5-1.9-5.4-4.6c-1.5-9.2-9.7-15.6-19.1-14.9c-3,0.2-5.7-2-5.9-5.1
			c-0.2-3,2-5.7,5.1-5.9c15-1.1,28.3,9.2,30.7,24.1c0.5,3-1.5,5.8-4.5,6.3C132,333.5,131.7,333.5,131.4,333.5z"/>
	</g>
	<g>
		<path style="fill:#CAE6C4;" d="M131.4,333.5c-0.3,0-0.6,0-0.9-0.1c-3-0.5-5-3.3-4.5-6.3c2.5-14.8,15.7-25.2,30.7-24.1
			c3,0.2,5.3,2.9,5.1,5.9s-2.9,5.3-5.9,5.1c-9.3-0.7-17.5,5.7-19.1,14.9C136.4,331.6,134,333.5,131.4,333.5z"/>
	</g>
</g>
<linearGradient id="SVGID_2_" gradientUnits="userSpaceOnUse" x1="-2.3546" y1="893.0601" x2="-317.445" y2="506.3582" gradientTransform="matrix(1 0 0 -1 536.4739 1392)">
	<stop  offset="0" style="stop-color:#FFD8A1"/>
	<stop  offset="0.9958" style="stop-color:#FFFFFF"/>
</linearGradient>
<path style="fill:url(#SVGID_2_);" d="M743.9,888.1c-101.7-6.6-135-145.7-194.3-200.6c-59.3-54.9-187.5-15.6-215.3-165.4
	c-18.6-100.1-102-104.5-171.5-141.4c-37.9-20.1-83.6,7.3-83.6,50.3v457L743.9,888.1L743.9,888.1z"/>
<linearGradient id="SVGID_3_" gradientUnits="userSpaceOnUse" x1="-3838.5059" y1="716.4434" x2="-3838.5059" y2="512.398" gradientTransform="matrix(-1 0 0 -1 -2983.7559 1392)">
	<stop  offset="0" style="stop-color:#C0DDFC"/>
	<stop  offset="0.1856" style="stop-color:#D3E7FD"/>
	<stop  offset="0.4877" style="stop-color:#EBF4FE"/>
	<stop  offset="0.766" style="stop-color:#FAFCFF"/>
	<stop  offset="0.9958" style="stop-color:#FFFFFF"/>
</linearGradient>
<path style="fill:url(#SVGID_3_);" d="M679.7,888.1c99.7,0,96.5-151.2,183.2-171.2c34.6-8,53.5-33.6,69.5-61.4
	c26.7-46.3,97.4-27.6,97.4,25.9v206.8L679.7,888.1L679.7,888.1z"/>
<rect x="115.6" y="882.2" style="fill:#2B2B2B;" width="862.2" height="4.1"/>
<path style="fill:#8670BD;" d="M340.3,236.1l57.3,138.4L392,365l81.8,119.3c8.8,12.8,5.5,30.4-7.3,39.2c-11.7,8-27.2,6-36.5-4
	l-98.9-105.6c-2.1-2.2-3.6-4.7-4.7-7.3l-0.9-2.2L268.2,266c-8.3-19.9,1.2-42.8,21.1-51C309.2,206.7,332.1,216.2,340.3,236.1z"/>
<g>
	
		<linearGradient id="SVGID_4_" gradientUnits="userSpaceOnUse" x1="722.4426" y1="822.3322" x2="722.4426" y2="596.0672" gradientTransform="matrix(1 0 0 -1 0 1080)">
		<stop  offset="0" style="stop-color:#F48B94"/>
		<stop  offset="0.405" style="stop-color:#F4A9A6"/>
		<stop  offset="0.4989" style="stop-color:#FED3B5"/>
		<stop  offset="0.599" style="stop-color:#DBECC2"/>
		<stop  offset="1" style="stop-color:#ADDCC8"/>
	</linearGradient>
	<path style="fill:url(#SVGID_4_);" d="M820.4,259.8c-16.1-12.3-39.2-9.2-51.5,6.9l-57,74.5l-72.4-7.8c-12.2-1.3-24.1,6-28.1,18.1
		c-4.6,14,3,29,16.9,33.6l92.6,30.6c12.4,4.1,26.5,0.2,34.8-10.7l2.2-2.8l69.4-90.8C839.6,295.3,836.5,272.2,820.4,259.8z"/>
	<path style="fill:#2B2B2B;" d="M749.7,361.6c5.1-31.4,27.5-29.1,20.3-53.5l-47.5,34.5v51l6.3,28.1l27.8-11.6L749.7,361.6z"/>
</g>
<g>
	<g>
		<path style="fill:#FFFFFF;" d="M745.5,347.7c0,34.5-20.5,97.2-48,165.9c-4.2,10.5-8.6,21.3-13.1,32
			c-44.6,106.1-100.6,218.3-121.5,259.3c-3.5,6.8-13.2,6.8-16.6,0C518.1,749.4,425.4,563.6,384,438.8c-6.6-19.9-11.9-38.3-15.4-54.3
			c-3.1-14.3-4.9-26.7-4.9-36.7c0-105.4,85.5-190.9,190.9-190.9S745.5,242.3,745.5,347.7z"/>
		<path style="fill:#5BCF9C;" d="M554.6,815C554.5,815,554.5,815,554.6,815c-5.5,0-10.3-3-12.7-7.9
			c-27.6-54.4-121.1-241.7-162.6-366.8c-6.9-20.9-12.1-39.3-15.5-54.8c-3.4-15.6-5-27.9-5-37.8c0-108,87.9-195.9,195.9-195.9
			s195.9,87.8,195.9,195.8c0,31.2-16.3,87.6-48.4,167.8c-4.7,11.8-9,22.3-13.1,32.1c-46.7,111-104.9,226.8-121.7,259.6
			C564.9,812,560,815,554.6,815z M554.6,161.9c-102.5,0-185.9,83.4-185.9,185.9c0,9.1,1.6,20.8,4.8,35.6
			c3.3,15.2,8.4,33.3,15.3,53.8c41.3,124.4,134.4,311.2,162,365.4c1.1,2.1,3,2.4,3.8,2.4c1.7,0,3.1-0.9,3.9-2.4
			c16.7-32.8,74.8-148.3,121.3-259c4.1-9.8,8.4-20.2,13.1-31.9c31.6-79,47.6-134.2,47.6-164C740.5,245.2,657.1,161.9,554.6,161.9z"
			/>
	</g>
	<path style="fill:#2B2B2B;" d="M702.8,514.1c-4.2,10.5-8.2,18.9-12.8,29.7c-13.4,5.2-27.4,1.2-34.2-7.8c-8-10.6-6.8-25.3,2.3-34.5
		l18.1-18.4L702.8,514.1z"/>
	<path style="fill:#2B2B2B;" d="M425.8,411.6c-1.1,14-12.3,24.8-25.9,25.9l-21.4,1.3c-6.6-19.9-10-38-10-54.3v-5.7l31.4,2.5
		C415.4,382.4,427,396,425.8,411.6z"/>
	<ellipse style="fill:#5BCF9C;" cx="554.617" cy="343.397" rx="122.603" ry="122.603"/>
	<g>
		<path style="fill:#FFFFFF;" d="M554.6,388.7c-2.9,0-5.7-1.3-7.6-3.5l-38.4-44.5c-3.6-4.2-3.1-10.5,1-14.1c4.2-3.6,10.5-3.1,14.1,1
			l30,34.8l37.5-53.5c3.2-4.5,9.4-5.6,13.9-2.4s5.6,9.4,2.4,13.9l-44.9,64c-1.8,2.5-4.6,4.1-7.7,4.2
			C554.9,388.7,554.8,388.7,554.6,388.7z"/>
	</g>
</g>
<g>
	
		<linearGradient id="SVGID_5_" gradientUnits="userSpaceOnUse" x1="813.0361" y1="1134.3322" x2="813.0361" y2="908.0672" gradientTransform="matrix(1 0 0 -1 0 1392)">
		<stop  offset="0" style="stop-color:#F48B94"/>
		<stop  offset="0.405" style="stop-color:#F4A9A6"/>
		<stop  offset="0.4989" style="stop-color:#FED3B5"/>
		<stop  offset="0.599" style="stop-color:#DBECC2"/>
		<stop  offset="1" style="stop-color:#ADDCC8"/>
	</linearGradient>
	<path style="fill:url(#SVGID_5_);" d="M749,366.9c3.3-37,28.6-33.1,21-58.8c-7.6-25.7,6.7-59.6,35.1-57.1c21.9,1.9,23.5,1.2,32.8,2
		c22.5,2,38.1,21.2,39.1,42.3c0.8,18.1-5.3,72.9-6,81.5L749,366.9z"/>
	<g>
		<g>
			
				<linearGradient id="XMLID_2_" gradientUnits="userSpaceOnUse" x1="786.3377" y1="1003" x2="786.3377" y2="519.6575" gradientTransform="matrix(1 0 0 -1 0 1392)">
				<stop  offset="0" style="stop-color:#77879D"/>
				<stop  offset="0.0893" style="stop-color:#A1978E"/>
				<stop  offset="0.1883" style="stop-color:#C9A780"/>
				<stop  offset="0.2791" style="stop-color:#E5B275"/>
				<stop  offset="0.3578" style="stop-color:#F7B96F"/>
				<stop  offset="0.4155" style="stop-color:#FDBB6D"/>
				<stop  offset="0.4989" style="stop-color:#FDBB9F"/>
				<stop  offset="0.599" style="stop-color:#D1D2D1"/>
				<stop  offset="1" style="stop-color:#FECEAA"/>
			</linearGradient>
			<path id="XMLID_130_" style="fill:url(#XMLID_2_);" d="M853.6,400.3l-14.5,117.3l-7.2,58.7c-2.4,19.6-4.7,39.1-7.4,58.6
				l-31,234.4l-70.6-9.3c-0.5-5-0.7-10-1.1-15c-0.3-5-0.5-10-0.8-15l-0.4-7.5c-0.1-2.5-0.2-5-0.3-7.5l-0.5-14.9
				c-0.6-19.9-0.8-39.8-0.7-59.6c0.1-39.7,1.4-79.2,3.4-118.6c0.5-9.8,1.1-19.7,1.6-29.5l0.9-14.8l0.4-7.4l0.5-7.4l1.1-14.7
				c0.4-4.9,0.8-9.8,1.2-14.7c0.8-9.8,1.8-19.6,2.8-29.4c2.1-19.6,4.6-39.1,7.5-58.5c3-19.4,7.4-49.6,12-68.9L853.6,400.3z"/>
		</g>
		<g>
			<g style="opacity:0.3;">
				<g>
					<g>
						<g>
							<g>
								<path style="fill:#FFFFFF;" d="M745.4,822c-2,0-4-1.3-4.7-3.3c-1-2.6,0.4-5.5,3-6.4l6.8-2.5c2.6-1,5.5,0.4,6.4,3
									c1,2.6-0.4,5.5-3,6.4l-6.8,2.5C746.6,821.9,746,822,745.4,822z"/>
							</g>
							<g>
								<path style="fill:#FFFFFF;" d="M772,861.5c-0.7,0-1.4-0.1-2.1-0.5c-2.5-1.2-3.6-4.1-2.4-6.6l3.1-6.7
									c1.2-2.5,4.1-3.6,6.6-2.4c2.5,1.2,3.6,4.1,2.4,6.6l-3.1,6.7C775.7,860.4,773.9,861.5,772,861.5z"/>
							</g>
							<g>
								<path style="fill:#FFFFFF;" d="M732.2,856.3c-2,0-4-1.3-4.7-3.3l-2.5-6.8c-1-2.6,0.4-5.5,3-6.4c2.6-1,5.5,0.4,6.4,3l2.5,6.8
									c1,2.6-0.4,5.5-3,6.4C733.4,856.2,732.8,856.3,732.2,856.3z"/>
							</g>
						</g>
					</g>
					<g>
						<g>
							<g>
								<path style="fill:#FFFFFF;" d="M800.3,817.5l-1.2,9.2c-0.4,0.1-0.8,0.2-1.2,0.2c-0.7,0-1.4-0.2-2.1-0.5l-6.7-3.1
									c-2.5-1.2-3.6-4.1-2.4-6.6c1.2-2.5,4.1-3.6,6.6-2.4l6.7,3.1C800.1,817.4,800.2,817.5,800.3,817.5z"/>
							</g>
						</g>
					</g>
				</g>
				<g>
					<g>
						<g>
							<g>
								<path style="fill:#FFFFFF;" d="M748.7,666.2c-2,0-4-1.3-4.7-3.3c-1-2.6,0.4-5.5,3-6.4l6.8-2.5c2.6-1,5.5,0.4,6.4,3
									c1,2.6-0.4,5.5-3,6.4l-6.8,2.5C749.9,666.1,749.3,666.2,748.7,666.2z"/>
							</g>
							<g>
								<path style="fill:#FFFFFF;" d="M775.3,705.7c-0.7,0-1.4-0.1-2.1-0.5c-2.5-1.2-3.6-4.1-2.4-6.6l3.1-6.7
									c1.2-2.5,4.1-3.6,6.6-2.4c2.5,1.2,3.6,4.1,2.4,6.6l-3.1,6.7C779,704.6,777.2,705.7,775.3,705.7z"/>
							</g>
							<g>
								<path style="fill:#FFFFFF;" d="M735.5,700.5c-2,0-4-1.3-4.7-3.3l-2.5-6.8c-1-2.6,0.4-5.5,3-6.4c2.6-1,5.5,0.4,6.4,3l2.5,6.8
									c1,2.6-0.4,5.5-3,6.4C736.7,700.4,736.1,700.5,735.5,700.5z"/>
							</g>
						</g>
						<g>
							<g>
								<path style="fill:#FFFFFF;" d="M745.7,741.1c-2,0-4-1.3-4.7-3.3c-0.9-2.6,0.4-5.5,3-6.4l6.9-2.5c2.6-0.9,5.5,0.4,6.4,3
									s-0.4,5.5-3,6.4l-6.9,2.5C746.8,741,746.3,741.1,745.7,741.1z"/>
							</g>
							<g>
								<path style="fill:#FFFFFF;" d="M772.3,780.5c-0.7,0-1.4-0.2-2.1-0.5c-2.5-1.2-3.6-4.2-2.4-6.7l3.1-6.6
									c1.2-2.5,4.2-3.6,6.7-2.4c2.5,1.2,3.6,4.2,2.4,6.7l-3.1,6.6C776,779.4,774.2,780.5,772.3,780.5z"/>
							</g>
							<g>
								<path style="fill:#FFFFFF;" d="M732.6,775.4c-2,0-4-1.3-4.7-3.3l-2.5-6.9c-0.9-2.6,0.4-5.5,3-6.4s5.5,0.4,6.4,3l2.5,6.9
									c0.9,2.6-0.4,5.5-3,6.4C733.7,775.3,733.2,775.4,732.6,775.4z"/>
							</g>
						</g>
					</g>
					<g>
						<g>
							<g>
								<path style="fill:#FFFFFF;" d="M801.2,671.1c-0.7,0-1.4-0.2-2.1-0.5l-6.6-3.1c-2.5-1.2-3.6-4.2-2.4-6.7
									c1.2-2.5,4.2-3.6,6.7-2.4l6.6,3.1c2.5,1.2,3.6,4.2,2.4,6.7C804.9,670,803.1,671.1,801.2,671.1z"/>
							</g>
							<g>
								<path style="fill:#FFFFFF;" d="M814.6,637.3c-0.7,0-1.4-0.2-2.1-0.5c-2.5-1.2-3.6-4.2-2.4-6.7l3.1-6.6
									c1.2-2.5,4.2-3.6,6.7-2.4c2.5,1.2,3.6,4.2,2.4,6.7l-3.1,6.6C818.3,636.2,816.5,637.3,814.6,637.3z"/>
							</g>
						</g>
						<g>
							<g>
								<path style="fill:#FFFFFF;" d="M798.2,746c-0.7,0-1.4-0.2-2.1-0.5l-6.6-3.1c-2.5-1.2-3.6-4.2-2.4-6.7
									c1.2-2.5,4.2-3.6,6.7-2.4l6.6,3.1c2.5,1.2,3.6,4.2,2.4,6.7C801.9,744.9,800.1,746,798.2,746z"/>
							</g>
							<g>
								<path style="fill:#FFFFFF;" d="M816.4,695.9l-2,15.4c-0.8,0.6-1.8,0.9-2.8,0.9c-0.7,0-1.4-0.2-2.1-0.5
									c-2.5-1.2-3.6-4.2-2.4-6.7l3.1-6.6C811.3,696.1,814,695,816.4,695.9z"/>
							</g>
						</g>
					</g>
				</g>
				<g>
					<g>
						<g>
							<g>
								<path style="fill:#FFFFFF;" d="M752,510.4c-2,0-4-1.3-4.7-3.3c-0.9-2.6,0.4-5.5,3-6.4l6.9-2.5c2.6-0.9,5.5,0.4,6.4,3
									s-0.4,5.5-3,6.4l-6.9,2.5C753.1,510.3,752.6,510.4,752,510.4z"/>
							</g>
							<g>
								<path style="fill:#FFFFFF;" d="M778.6,549.9c-0.7,0-1.4-0.1-2.1-0.5c-2.5-1.2-3.6-4.1-2.4-6.6l3.1-6.7
									c1.2-2.5,4.1-3.6,6.6-2.4c2.5,1.2,3.6,4.1,2.4,6.6l-3.1,6.7C782.3,548.8,780.5,549.9,778.6,549.9z"/>
							</g>
							<g>
								<path style="fill:#FFFFFF;" d="M738.8,544.7c-2,0-4-1.3-4.7-3.3l-2.5-6.8c-1-2.6,0.4-5.5,3-6.4c2.6-1,5.5,0.4,6.4,3l2.5,6.8
									c1,2.6-0.4,5.5-3,6.4C740,544.6,739.4,544.7,738.8,544.7z"/>
							</g>
						</g>
						<g>
							<g>
								<path style="fill:#FFFFFF;" d="M749,585.3c-2,0-4-1.3-4.7-3.3c-0.9-2.6,0.4-5.5,3-6.4l6.9-2.5c2.6-0.9,5.5,0.4,6.4,3
									s-0.4,5.5-3,6.4l-6.9,2.5C750.1,585.2,749.6,585.3,749,585.3z"/>
							</g>
							<g>
								<path style="fill:#FFFFFF;" d="M775.6,624.7c-0.7,0-1.4-0.2-2.1-0.5c-2.5-1.2-3.6-4.2-2.4-6.7l3.1-6.6
									c1.2-2.5,4.2-3.6,6.7-2.4c2.5,1.2,3.6,4.2,2.4,6.7l-3.1,6.6C779.3,623.6,777.5,624.7,775.6,624.7z"/>
							</g>
							<g>
								<path style="fill:#FFFFFF;" d="M735.9,619.6c-2,0-4-1.3-4.7-3.3l-2.5-6.9c-0.9-2.6,0.4-5.5,3-6.4s5.5,0.4,6.4,3l2.5,6.9
									c0.9,2.6-0.4,5.5-3,6.4C737,619.5,736.5,619.6,735.9,619.6z"/>
							</g>
						</g>
					</g>
					<g>
						<g>
							<g>
								<path style="fill:#FFFFFF;" d="M804.5,515.3c-0.7,0-1.4-0.2-2.1-0.5l-6.6-3.1c-2.5-1.2-3.6-4.2-2.4-6.7
									c1.2-2.5,4.2-3.6,6.7-2.4l6.6,3.1c2.5,1.2,3.6,4.2,2.4,6.7C808.2,514.2,806.4,515.3,804.5,515.3z"/>
							</g>
							<g>
								<path style="fill:#FFFFFF;" d="M817.9,481.5c-0.7,0-1.4-0.2-2.1-0.5c-2.5-1.2-3.6-4.2-2.4-6.7l3.1-6.6
									c1.2-2.5,4.2-3.6,6.7-2.4s3.6,4.2,2.4,6.7l-3.1,6.6C821.6,480.4,819.8,481.5,817.9,481.5z"/>
							</g>
							<g>
								<path style="fill:#FFFFFF;" d="M839.5,514l-0.4,3.6l-0.8,6.8l-1.5-4.1C835.9,517.8,837.1,515,839.5,514z"/>
							</g>
						</g>
						<g>
							<g>
								<path style="fill:#FFFFFF;" d="M801.5,590.2c-0.7,0-1.4-0.2-2.1-0.5l-6.6-3.1c-2.5-1.2-3.6-4.2-2.4-6.7
									c1.2-2.5,4.2-3.6,6.7-2.4l6.6,3.1c2.5,1.2,3.6,4.2,2.4,6.7C805.2,589.1,803.4,590.2,801.5,590.2z"/>
							</g>
							<g>
								<path style="fill:#FFFFFF;" d="M814.9,556.4c-0.7,0-1.4-0.2-2.1-0.5c-2.5-1.2-3.6-4.2-2.4-6.7l3.1-6.6
									c1.2-2.5,4.2-3.6,6.7-2.4c2.5,1.2,3.6,4.2,2.4,6.7l-3.1,6.6C818.6,555.3,816.8,556.4,814.9,556.4z"/>
							</g>
						</g>
					</g>
				</g>
				<g>
					<g>
						<g>
							<g>
								<path style="fill:#FFFFFF;" d="M789.1,385.5l-2.7,5.7c-0.8,1.8-2.7,2.9-4.5,2.9c-0.7,0-1.4-0.1-2.1-0.5
									c-2.5-1.2-3.6-4.1-2.4-6.6l1.8-3.8L789.1,385.5z"/>
							</g>
						</g>
						<g>
							<g>
								<path style="fill:#FFFFFF;" d="M752.3,429.5c-2,0-4-1.3-4.7-3.3c-0.9-2.6,0.4-5.5,3-6.4l6.9-2.5c2.6-0.9,5.5,0.4,6.4,3
									s-0.4,5.5-3,6.4l-6.9,2.5C753.4,429.4,752.9,429.5,752.3,429.5z"/>
							</g>
							<g>
								<path style="fill:#FFFFFF;" d="M778.9,468.9c-0.7,0-1.4-0.2-2.1-0.5c-2.5-1.2-3.6-4.2-2.4-6.7l3.1-6.6
									c1.2-2.5,4.2-3.6,6.7-2.4s3.6,4.2,2.4,6.7l-3.1,6.6C782.6,467.8,780.8,468.9,778.9,468.9z"/>
							</g>
							<g>
								<path style="fill:#FFFFFF;" d="M740.9,463.5c-0.6,0.2-1.1,0.3-1.7,0.3c-1.2,0-2.3-0.4-3.2-1.1c0.7-5.2,1.4-10.4,2.2-15.5
									c1.4,0.5,2.6,1.5,3.1,3l2.5,6.9C744.8,459.7,743.5,462.6,740.9,463.5z"/>
							</g>
						</g>
					</g>
					<g>
						<g>
							<g>
								<path style="fill:#FFFFFF;" d="M804.8,434.4c-0.7,0-1.4-0.2-2.1-0.5l-6.6-3.1c-2.5-1.2-3.6-4.2-2.4-6.7s4.2-3.6,6.7-2.4
									l6.6,3.1c2.5,1.2,3.6,4.2,2.4,6.7C808.5,433.3,806.7,434.4,804.8,434.4z"/>
							</g>
							<g>
								<path style="fill:#FFFFFF;" d="M824.7,393.7l-1.8,4c-0.8,1.8-2.6,2.9-4.5,2.9c-0.7,0-1.4-0.1-2.1-0.4
									c-2.5-1.1-3.6-4.1-2.5-6.6l1-2.2L824.7,393.7z"/>
							</g>
							<g>
								<path style="fill:#FFFFFF;" d="M848.5,441.5l-0.8,6.7c-0.5,0.4-1,0.8-1.6,1s-1.2,0.3-1.7,0.3c-2,0-4-1.2-4.7-3.3l-2.5-6.8
									c-1-2.6,0.4-5.5,3-6.4c2.6-1,5.5,0.4,6.4,3L848.5,441.5z"/>
							</g>
						</g>
					</g>
				</g>
			</g>
		</g>
	</g>
	<path style="fill:#2B2B2B;" d="M794.1,472c4.9,31.7,13.4,82.5-3.8,108.9s11.8,86.4,1.8,116.4s13.6,80.1,10.5,103.6l27.1-206.3
		L794.1,472z"/>
	<g>
		<g>
			
				<linearGradient id="XMLID_3_" gradientUnits="userSpaceOnUse" x1="846.7996" y1="1003" x2="846.7996" y2="519.6575" gradientTransform="matrix(1 0 0 -1 0 1392)">
				<stop  offset="0" style="stop-color:#77879D"/>
				<stop  offset="0.0893" style="stop-color:#A1978E"/>
				<stop  offset="0.1883" style="stop-color:#C9A780"/>
				<stop  offset="0.2791" style="stop-color:#E5B275"/>
				<stop  offset="0.3578" style="stop-color:#F7B96F"/>
				<stop  offset="0.4155" style="stop-color:#FDBB6D"/>
				<stop  offset="0.4989" style="stop-color:#FDBB9F"/>
				<stop  offset="0.599" style="stop-color:#D1D2D1"/>
				<stop  offset="1" style="stop-color:#FECEAA"/>
			</linearGradient>
			<path id="XMLID_129_" style="fill:url(#XMLID_3_);" d="M915.7,612.7c-1.6-9.5-3-19-4.4-28.5l-4.4-28.5c0,0-37.8-159.6-36-178.9
				l-121.7-12.3c-1.3,15.3,10.1,35.1,28.3,45.8l0.3,4.9l1.2,14.4c0.4,4.8,0.9,9.6,1.4,14.4c0.6,4.8,1,9.6,1.7,14.3
				c2.3,19.1,5.1,38.2,8.3,57.1l1.2,7.1l1.3,7.1l2.5,14.2c1.8,9.5,3.5,18.9,5.5,28.4l2.9,14.2l3.1,14.1c2,9.4,4.1,18.8,6.5,28.2
				c9.3,37.5,19.5,74.8,30.7,112c5.7,18.6,11.6,37.1,17.9,55.6l4.8,13.8l2.4,6.9l2.6,6.9c1.7,4.6,3.4,9.2,5.1,13.8
				c1.8,4.6,3.5,9.2,5.5,13.7l62.1-32.6L915.7,612.7z"/>
		</g>
		<g>
			<g style="opacity:0.3;">
				<g>
					<g>
						<g>
							<g>
								<path style="fill:#FFFFFF;" d="M886.9,805.9c-0.7,0-1.4-0.1-2.1-0.5l-6.7-3.1c-2.5-1.2-3.6-4.1-2.4-6.6
									c1.2-2.5,4.1-3.6,6.6-2.4l6.7,3.1c2.5,1.2,3.6,4.1,2.4,6.6C890.6,804.8,888.8,805.9,886.9,805.9z"/>
							</g>
							<g>
								<path style="fill:#FFFFFF;" d="M940,786.7c-0.2,0-0.3,0-0.5,0c-2,0-4-1.3-4.7-3.3c-0.9-2.6,0.4-5.5,3-6.4l0.8-0.3L940,786.7
									z"/>
							</g>
							<g>
								<path style="fill:#FFFFFF;" d="M900.3,772.1c-0.7,0-1.4-0.2-2.1-0.5c-2.5-1.2-3.6-4.2-2.4-6.7l3.1-6.6
									c1.2-2.5,4.2-3.6,6.7-2.4c2.5,1.2,3.6,4.2,2.4,6.7l-3.1,6.6C904,771,902.2,772.1,900.3,772.1z"/>
							</g>
							<g>
								<path style="fill:#FFFFFF;" d="M926.4,821.1c-2,0-4-1.3-4.7-3.3l-2.5-6.9c-0.9-2.6,0.4-5.5,3-6.4s5.5,0.4,6.4,3l2.5,6.9
									c0.9,2.6-0.4,5.5-3,6.4C927.5,821,927,821.1,926.4,821.1z"/>
							</g>
						</g>
						<g>
							<g>
								<path style="fill:#FFFFFF;" d="M904.9,837.5l-1.3,2.7l-10,5.2c-1.4-1.4-1.8-3.7-0.9-5.6l3.1-6.6c1.2-2.5,4.2-3.6,6.7-2.4
									S906.1,835,904.9,837.5z"/>
							</g>
						</g>
					</g>
				</g>
				<g>
					<g>
						<g>
							<g>
								<path style="fill:#FFFFFF;" d="M837.7,645.2c-2,0-4-1.3-4.7-3.3c-1-2.6,0.4-5.5,3-6.4l6.8-2.5c2.6-1,5.5,0.4,6.4,3
									c1,2.6-0.4,5.5-3,6.4l-6.8,2.5C838.9,645.1,838.3,645.2,837.7,645.2z"/>
							</g>
							<g>
								<path style="fill:#FFFFFF;" d="M864.3,684.7c-0.7,0-1.4-0.1-2.1-0.5c-2.5-1.2-3.6-4.1-2.4-6.6l3.1-6.7
									c1.2-2.5,4.1-3.6,6.6-2.4c2.5,1.2,3.6,4.1,2.4,6.6l-3.1,6.7C868,683.6,866.2,684.7,864.3,684.7z"/>
							</g>
							<g>
								<path style="fill:#FFFFFF;" d="M826.5,679.1c-1.5-5.5-2.9-10.9-4.4-16.4c2,0,3.9,1.3,4.6,3.3l2.5,6.8
									C830.1,675.3,828.9,678,826.5,679.1z"/>
							</g>
						</g>
						<g>
							<g>
								<path style="fill:#FFFFFF;" d="M843.3,717.3l-5.5,2c-0.9-3.2-1.9-6.4-2.8-9.6l4.9-1.8c2.6-0.9,5.5,0.4,6.4,3
									C847.2,713.5,845.9,716.4,843.3,717.3z"/>
							</g>
							<g>
								<path style="fill:#FFFFFF;" d="M861.3,759.5c-0.7,0-1.4-0.2-2.1-0.5c-2.5-1.2-3.6-4.2-2.4-6.7l3.1-6.6
									c1.2-2.5,4.2-3.6,6.7-2.4c2.5,1.2,3.6,4.2,2.4,6.7l-3.1,6.6C865,758.4,863.2,759.5,861.3,759.5z"/>
							</g>
						</g>
					</g>
					<g>
						<g>
							<g>
								<path style="fill:#FFFFFF;" d="M890.2,650.1c-0.7,0-1.4-0.2-2.1-0.5l-6.6-3.1c-2.5-1.2-3.6-4.2-2.4-6.7
									c1.2-2.5,4.2-3.6,6.7-2.4l6.6,3.1c2.5,1.2,3.6,4.2,2.4,6.7C893.9,649,892.1,650.1,890.2,650.1z"/>
							</g>
							<g>
								<path style="fill:#FFFFFF;" d="M903.6,616.3c-0.7,0-1.4-0.2-2.1-0.5c-2.5-1.2-3.6-4.2-2.4-6.7l3.1-6.6
									c1.2-2.5,4.2-3.6,6.7-2.4c2.5,1.2,3.6,4.2,2.4,6.7l-3.1,6.6C907.3,615.2,905.5,616.3,903.6,616.3z"/>
							</g>
						</g>
						<g>
							<g>
								<path style="fill:#FFFFFF;" d="M887.2,725c-0.7,0-1.4-0.2-2.1-0.5l-6.6-3.1c-2.5-1.2-3.6-4.2-2.4-6.7
									c1.2-2.5,4.2-3.6,6.7-2.4l6.6,3.1c2.5,1.2,3.6,4.2,2.4,6.7C890.9,723.9,889.1,725,887.2,725z"/>
							</g>
							<g>
								<path style="fill:#FFFFFF;" d="M900.6,691.2c-0.7,0-1.4-0.2-2.1-0.5c-2.5-1.2-3.6-4.2-2.4-6.7l3.1-6.6
									c1.2-2.5,4.2-3.6,6.7-2.4c2.5,1.2,3.6,4.2,2.4,6.7l-3.1,6.6C904.3,690.1,902.5,691.2,900.6,691.2z"/>
							</g>
							<g>
								<path style="fill:#FFFFFF;" d="M926.7,740.1c-2,0-4-1.3-4.7-3.3l-2.5-6.8c-1-2.6,0.4-5.5,3-6.4c2.6-1,5.5,0.4,6.4,3l2.5,6.8
									c1,2.6-0.4,5.5-3,6.4C927.9,740,927.3,740.1,926.7,740.1z"/>
							</g>
						</g>
					</g>
				</g>
				<g>
					<g>
						<g>
							<g>
								<path style="fill:#FFFFFF;" d="M792.9,505.7c-0.7,1.5-2.1,2.5-3.7,2.8c-0.6-3.6-1.2-7.2-1.7-10.8l3,1.4
									C793,500.2,794.1,503.2,792.9,505.7z"/>
							</g>
							<g>
								<path style="fill:#FFFFFF;" d="M841,489.4c-2,0-4-1.3-4.7-3.3c-0.9-2.6,0.4-5.5,3-6.4l6.9-2.5c2.6-0.9,5.5,0.4,6.4,3
									s-0.4,5.5-3,6.4l-6.9,2.5C842.1,489.3,841.6,489.4,841,489.4z"/>
							</g>
							<g>
								<path style="fill:#FFFFFF;" d="M801.8,474.8c-0.7,0-1.4-0.2-2.1-0.5c-2.5-1.2-3.6-4.2-2.4-6.7l3.1-6.6
									c1.2-2.5,4.2-3.6,6.7-2.4s3.6,4.2,2.4,6.7l-3.1,6.6C805.5,473.7,803.7,474.8,801.8,474.8z"/>
							</g>
							<g>
								<path style="fill:#FFFFFF;" d="M867.6,528.9c-0.7,0-1.4-0.1-2.1-0.5c-2.5-1.2-3.6-4.1-2.4-6.6l3.1-6.7
									c1.2-2.5,4.1-3.6,6.6-2.4c2.5,1.2,3.6,4.1,2.4,6.6l-3.1,6.7C871.3,527.8,869.5,528.9,867.6,528.9z"/>
							</g>
							<g>
								<path style="fill:#FFFFFF;" d="M827.8,523.7c-2,0-4-1.3-4.7-3.3l-2.5-6.8c-1-2.6,0.4-5.5,3-6.4c2.6-1,5.5,0.4,6.4,3l2.5,6.8
									c1,2.6-0.4,5.5-3,6.4C829,523.6,828.4,523.7,827.8,523.7z"/>
							</g>
						</g>
						<g>
							<g>
								<path style="fill:#FFFFFF;" d="M838,564.3c-2,0-4-1.3-4.7-3.3c-0.9-2.6,0.4-5.5,3-6.4l6.9-2.5c2.6-0.9,5.5,0.4,6.4,3
									s-0.4,5.5-3,6.4l-6.9,2.5C839.1,564.2,838.6,564.3,838,564.3z"/>
							</g>
							<g>
								<path style="fill:#FFFFFF;" d="M806.4,540.2l-3.1,6.6c-0.9,1.8-2.7,2.9-4.5,2.9c-0.7,0-1.4-0.2-2.1-0.5
									c-0.1,0-0.2-0.1-0.3-0.1c-0.3-1.8-0.7-3.5-1-5.3l-0.5-2.6l0,0l2.5-5.2c1.2-2.5,4.2-3.6,6.7-2.4
									C806.5,534.8,807.6,537.7,806.4,540.2z"/>
							</g>
							<g>
								<path style="fill:#FFFFFF;" d="M864.6,603.7c-0.7,0-1.4-0.2-2.1-0.5c-2.5-1.2-3.6-4.2-2.4-6.7l3.1-6.6
									c1.2-2.5,4.2-3.6,6.7-2.4c2.5,1.2,3.6,4.2,2.4,6.7l-3.1,6.6C868.3,602.6,866.5,603.7,864.6,603.7z"/>
							</g>
							<g>
								<path style="fill:#FFFFFF;" d="M824.9,598.6c-2,0-4-1.3-4.7-3.3l-2.5-6.9c-0.9-2.6,0.4-5.5,3-6.4s5.5,0.4,6.4,3l2.5,6.9
									c0.9,2.6-0.4,5.5-3,6.4C826,598.5,825.5,598.6,824.9,598.6z"/>
							</g>
						</g>
					</g>
					<g>
						<g>
							<g>
								<path style="fill:#FFFFFF;" d="M892.8,494.2c-0.5,0-1-0.2-1.4-0.4l-6.6-3.1c-2.5-1.2-3.6-4.2-2.4-6.7
									c1.2-2.5,4.2-3.6,6.7-2.4l1.1,0.5C891,486.3,891.9,490.3,892.8,494.2z"/>
							</g>
						</g>
						<g>
							<g>
								<path style="fill:#FFFFFF;" d="M890.5,569.2c-0.7,0-1.4-0.2-2.1-0.5l-6.6-3.1c-2.5-1.2-3.6-4.2-2.4-6.7
									c1.2-2.5,4.2-3.6,6.7-2.4l6.6,3.1c2.5,1.2,3.6,4.2,2.4,6.7C894.2,568.1,892.4,569.2,890.5,569.2z"/>
							</g>
							<g>
								<path style="fill:#FFFFFF;" d="M902.1,535c-0.1,0-0.2-0.1-0.3-0.1c-2.5-1.2-3.6-4.2-2.4-6.7l0.8-1.6
									C900.8,529.6,901.5,532.4,902.1,535z"/>
							</g>
						</g>
					</g>
				</g>
				<g>
					<g>
						<g>
							<g>
								<path style="fill:#FFFFFF;" d="M793.2,424.8c-0.8,1.8-2.6,2.9-4.5,2.9c-0.7,0-1.4-0.2-2.1-0.5l-6.6-3.1
									c-0.6-0.3-1.1-0.7-1.5-1.1l-0.5-6.2c1.4-2,4-2.8,6.3-1.8l6.6,3.1C793.3,419.3,794.4,422.3,793.2,424.8z"/>
							</g>
							<g>
								<path style="fill:#FFFFFF;" d="M841.3,408.5c-2,0-4-1.3-4.7-3.3c-0.9-2.6,0.4-5.5,3-6.4l6.9-2.5c2.6-0.9,5.5,0.4,6.4,3
									s-0.4,5.5-3,6.4l-6.9,2.5C842.4,408.4,841.9,408.5,841.3,408.5z"/>
							</g>
							<g>
								<path style="fill:#FFFFFF;" d="M802.1,393.9c-0.7,0-1.4-0.1-2.1-0.5c-2.5-1.2-3.6-4.1-2.4-6.6l3.1-6.7
									c1.2-2.5,4.1-3.6,6.6-2.4s3.6,4.1,2.4,6.6l-3.1,6.7C805.8,392.8,804,393.9,802.1,393.9z"/>
							</g>
							<g>
								<path style="fill:#FFFFFF;" d="M867.9,447.9c-0.7,0-1.4-0.2-2.1-0.5c-2.5-1.2-3.6-4.2-2.4-6.7l3.1-6.6
									c1.2-2.5,4.2-3.6,6.7-2.4s3.6,4.2,2.4,6.7l-3.1,6.6C871.6,446.8,869.8,447.9,867.9,447.9z"/>
							</g>
							<g>
								<path style="fill:#FFFFFF;" d="M828.2,442.8c-2,0-4-1.3-4.7-3.3l-2.5-6.9c-0.9-2.6,0.4-5.5,3-6.4s5.5,0.4,6.4,3l2.5,6.9
									c0.9,2.6-0.4,5.5-3,6.4C829.3,442.7,828.8,442.8,828.2,442.8z"/>
							</g>
						</g>
					</g>
				</g>
			</g>
		</g>
	</g>
	<circle style="fill:#EA7068;" cx="853.6" cy="126.1" r="31.9"/>
	<circle style="fill:#2B2B2B;" cx="823.1" cy="154" r="26.9"/>
	<g>
		<g>
			<g>
				<path id="SVGID_406_" style="fill:#FDC068;" d="M795.2,229.5l25.7,0.9c13.3,0.5,24.5-9.9,24.9-23.2l1.4-38.7
					c0.7-21.3-15.9-39.1-37.2-39.9l0,0c-21.3-0.7-39.1,15.9-39.9,37.2l-1.2,35.5C768.3,216.3,780.1,228.9,795.2,229.5z"/>
			</g>
			<g>
				<path style="fill:#2B2B2B;" d="M773.2,176.8c0,2.2-1.6,4-3.6,4.3l0.3-8.6C771.8,173,773.2,174.7,773.2,176.8z"/>
			</g>
		</g>
		<path style="fill:#FDC068;" d="M813.9,274.1l30.7-10.1c1.6-0.5,2.7-2.1,2.7-3.8l-0.9-70.5l-41-1.4l-6.5,74
			C798.2,270.4,806.1,276.7,813.9,274.1z"/>
		<g>
			<path style="fill:#2B2B2B;" d="M779,190.3c-0.2,0-0.5-0.1-0.7-0.2l-3.6-2.3c-0.9-0.7-1.4-1.8-1.5-2.9c-0.1-1.1,0.3-2.2,1-3.1
				l5.7-6.3c0.5-0.5,1.2-0.5,1.8-0.1c0.5,0.5,0.5,1.2,0.1,1.8l-5.7,6.3c-0.3,0.4-0.5,0.8-0.4,1.3c0,0.4,0.2,0.9,0.6,1.2l3.4,2.1
				c0.6,0.4,0.8,1.1,0.4,1.7C779.8,190.1,779.4,190.3,779,190.3z"/>
		</g>
		<g>
			<path style="fill:#2B2B2B;" d="M782.9,204.8c-0.4,0-0.9,0-1.3-0.1c-3.5-0.7-5.2-3.9-5.3-4c-0.3-0.6-0.1-1.4,0.5-1.7
				s1.4-0.1,1.7,0.5c0,0,1.3,2.3,3.6,2.7c1.7,0.3,3.6-0.4,5.6-2.1c0.5-0.4,1.3-0.4,1.8,0.2c0.4,0.5,0.4,1.3-0.2,1.8
				C787.1,203.9,784.9,204.8,782.9,204.8z"/>
		</g>
		<polygon style="fill:#2B2B2B;" points="801.8,229.7 818.5,230.3 800.4,246.2 		"/>
		<circle style="fill:#2B2B2B;" cx="793.8" cy="177.9" r="4.4"/>
	</g>
	<g>
		<g>
			<path style="fill:#2B2B2B;" d="M669,886.4l113.9-0.4c6,0,10.8-4.8,10.9-10.8l0.3-14.4l-72,1l-54.5,13.7
				C661.2,877.1,662.4,886.5,669,886.4z"/>
		</g>
	</g>
	<g>
		<g>
			<path style="fill:#2B2B2B;" d="M841,886.4l24-0.1l80.5-39.9c5.3-2.6,7.6-9.1,5.1-14.5l-6.1-13.1l-64.2,32.6l-19.5,18.7l-21.2,5.3
				C833.3,877.1,834.5,886.5,841,886.4z"/>
		</g>
	</g>
	<path style="fill:#FDC068;" d="M708.6,514.9L693,526.6c-11.7,8.8-28.3,6.5-37.1-5.2c-8-10.6-6.8-25.3,2.3-34.5l18.1-18.4"/>
	
		<linearGradient id="SVGID_6_" gradientUnits="userSpaceOnUse" x1="775.9424" y1="1134.3322" x2="775.9424" y2="908.0672" gradientTransform="matrix(1 0 0 -1 0 1392)">
		<stop  offset="0" style="stop-color:#F48B94"/>
		<stop  offset="0.405" style="stop-color:#F4A9A6"/>
		<stop  offset="0.4989" style="stop-color:#FED3B5"/>
		<stop  offset="0.599" style="stop-color:#DBECC2"/>
		<stop  offset="1" style="stop-color:#ADDCC8"/>
	</linearGradient>
	<path style="fill:url(#SVGID_6_);" d="M676.2,468.5l78.4-79.9l-7.8,9.7L806.9,291c9.9-17.7,32.3-24,50-14.1s24,32.3,14.1,50
		l-60.1,107.3l-1.1,2c-1.7,3.1-4.1,5.7-6.7,7.7L708.7,515L676.2,468.5z"/>
	<g>
		<path style="fill:#2B2B2B;" d="M845.1,374.5c-0.2,0-0.5-0.1-0.7-0.2c-0.7-0.4-1-1.3-0.6-2l25.9-46.2c0.4-0.7,1.3-1,2-0.6
			s1,1.3,0.6,2l-25.9,46.2C846.1,374.2,845.6,374.5,845.1,374.5z"/>
	</g>
	<g>
		<path style="fill:#2B2B2B;" d="M764.9,366.5c-0.3,0-0.5-0.1-0.7-0.2c-0.7-0.4-1-1.3-0.6-2l34.9-60.7c0.4-0.7,1.3-1,2-0.6
			s1,1.3,0.6,2l-34.9,60.7C765.9,366.2,765.4,366.5,764.9,366.5z"/>
	</g>
	<path style="fill:#EA7068;" d="M770.1,165.7l14.5-16l8.5,7.8c7.2,6.7,12.5,15.2,15.1,24.7c2.9,10.4,6.3,22.8,6.5,23.3
		c7,19.7,18.4,26.2,35.7,26.2h8.9l-11.7-65.9c0-20.8-17.8-37.6-38.6-37.6h-1.2C787,128.1,770.1,144.9,770.1,165.7L770.1,165.7z"/>
	<g>
		<path style="fill:#2B2B2B;" d="M821.2,661.3c-0.7,0-1.3-0.4-1.4-1.1c-8.5-31.8-29.8-138.3-34.8-169.7c-0.1-0.8,0.4-1.6,1.2-1.7
			s1.6,0.4,1.7,1.2c5,31.4,26.3,137.8,34.8,169.5c0.2,0.8-0.3,1.6-1.1,1.8C821.5,661.3,821.3,661.3,821.2,661.3z"/>
	</g>
</g>
<g>
	<path style="fill:#8670BD;" d="M356.5,333.8c-3.5-39.4-30.4-35.2-22.3-62.6c8.1-27.3-7.2-63.4-37.4-60.8c-23.3,2.1-25,1.2-34.8,2.1
		c-9.4,0.8-28.3,12.4-35.4,17.1c-16.6,10.9-10.8,27.8-2.8,48.1c0,0-15.9-9.4-15.3-0.5c0.6,8.9,3.2,43.8,5.6,70.8L356.5,333.8z"/>
	
		<linearGradient id="SVGID_7_" gradientUnits="userSpaceOnUse" x1="313.4022" y1="535" x2="313.4022" y2="1013.0293" gradientTransform="matrix(1 0 0 -1 0 1392)">
		<stop  offset="0" style="stop-color:#D96359"/>
		<stop  offset="0.3215" style="stop-color:#90979D"/>
		<stop  offset="0.5011" style="stop-color:#7E9DAE"/>
		<stop  offset="0.6828" style="stop-color:#B8C1FC"/>
		<stop  offset="1" style="stop-color:#D2D4D4"/>
	</linearGradient>
	<path style="fill:url(#SVGID_7_);" d="M356,338.9c4.7,20.6,8.1,58.6,11.1,79.4s5.4,41.6,7.5,62.5l1.4,15.7l0.7,7.8l0.6,7.8
		l1.2,15.7l1,15.7l0.5,7.9l0.4,7.9l0.8,15.7c0.7,10.5,0.3,21,0.2,31.5c-0.7,42.1-2.2,84.3-4.9,126.5l-1,15.8l-1.2,15.8
		c-0.4,5.3-0.9,10.6-1.3,15.8l-0.7,7.9l-0.8,7.9l-1.6,15.8c-0.3,2.6-0.5,5.3-0.8,7.9l-0.9,7.9c-0.6,5.3-1.2,10.6-1.9,15.8
		c-0.7,5.3-1.4,10.6-2.3,15.8l-75.6,4.8l-15.9-248.4c-0.9-20.8-3.8-41.3-6.1-61.9l-7.1-61.8l-14.1-123.5L356,338.9z"/>
	<path style="fill:#2B2B2B;" d="M301.9,482.2c11.5,85.4-6.2,101.4,4.3,163.4c11,64.7-20.2,100.4-21,171.9l-20.1-289.2L301.9,482.2z"
		/>
	
		<linearGradient id="SVGID_8_" gradientUnits="userSpaceOnUse" x1="196.8965" y1="535.1443" x2="196.8965" y2="1014.7708" gradientTransform="matrix(1.0003 0 0.0171 -0.9997 -3.3953 1391.8613)">
		<stop  offset="0" style="stop-color:#D96359"/>
		<stop  offset="0.3215" style="stop-color:#90979D"/>
		<stop  offset="0.5011" style="stop-color:#7E9DAE"/>
		<stop  offset="0.6828" style="stop-color:#B8C1FC"/>
		<stop  offset="1" style="stop-color:#D2D4D4"/>
	</linearGradient>
	<path style="fill:url(#SVGID_8_);" d="M333.3,379.7c-3.8,21.5-9,42.6-14.5,63.7c-5.6,21-11.7,41.9-18.2,62.6
		c-6.5,20.8-13.6,41.4-20.8,61.9l-22.4,61.5c-15,41-97.5,232.9-102.6,242.8l-74.6-10.5L152.7,601c3-10.5,5.9-21,8.9-31.5l9.2-31.4
		L206.5,423l7.5-74.9L333.3,379.7z"/>
	
		<linearGradient id="SVGID_9_" gradientUnits="userSpaceOnUse" x1="285.1582" y1="534.7601" x2="285.1582" y2="1013.0076" gradientTransform="matrix(1 0 0 -1 0 1392)">
		<stop  offset="0" style="stop-color:#D96359"/>
		<stop  offset="0.3215" style="stop-color:#90979D"/>
		<stop  offset="0.5011" style="stop-color:#7E9DAE"/>
		<stop  offset="0.6828" style="stop-color:#B8C1FC"/>
		<stop  offset="1" style="stop-color:#D2D4D4"/>
	</linearGradient>
	<path style="fill:url(#SVGID_9_);" d="M214,348.1c1.8,20.8,21.8,46.1,58,43.2l29.2-3.3c33-2.6,57-34.4,55-56.8L214,348.1z"/>
	<g>
		<g>
			<g>
				<path id="SVGID_402_" style="fill:#EA7068;" d="M307.4,187.6l-27.3,1c-14.1,0.5-26-10.6-26.5-24.7l-1.4-41.2
					C251.3,100,269,81,291.6,80.2l0,0c22.6-0.8,41.6,16.9,42.4,39.5l1.3,37.8C335.9,173.6,323.4,187.1,307.4,187.6z"/>
			</g>
			<g>
				<path style="fill:#2B2B2B;" d="M334.6,136.1c-2.1-0.4-3.8-2.3-3.8-4.5c0-2.1,1.5-3.9,3.5-4.4L334.6,136.1z"/>
			</g>
		</g>
		<polygon style="fill:#FFFFFF;" points="251.9,223.4 317.2,263.5 303.4,212 		"/>
		<path style="fill:#EA7068;" d="M287.5,235.1L252,223.4l0.9-78.1l43.6-1.5l6.9,78.7C304.1,231.2,295.7,237.8,287.5,235.1z"/>
		<g>
			<path style="fill:#2B2B2B;" d="M324.6,146.1c-0.4,0-0.9-0.2-1.1-0.6c-0.4-0.6-0.2-1.4,0.4-1.8l3.6-2.3c0.4-0.3,0.6-0.8,0.6-1.3
				s-0.1-1-0.5-1.4l-6.1-6.7c-0.5-0.5-0.5-1.4,0.1-1.9c0.5-0.5,1.4-0.5,1.9,0.1l6.1,6.7c0.8,0.9,1.2,2.1,1.2,3.3
				c-0.1,1.2-0.6,2.4-1.6,3.2l-0.1,0.1l-3.7,2.4C325.1,146.1,324.8,146.1,324.6,146.1z M328.3,142.4L328.3,142.4L328.3,142.4z"/>
		</g>
		<polygon style="fill:#2B2B2B;" points="300.3,187.9 282.9,185.5 301.9,205.5 		"/>
		<circle style="fill:#2B2B2B;" cx="308.8" cy="132.7" r="4.6"/>
	</g>
	<g>
		<g>
			<path style="fill:#2B2B2B;" d="M421.2,886.5L300,886c-6.3,0-11.5-5.1-11.6-11.4l-0.3-15.3l76.6,1.1l58,14.5
				C429.4,876.5,428.1,886.5,421.2,886.5z"/>
		</g>
	</g>
	<g>
		<g>
			<path style="fill:#2B2B2B;" d="M213.1,886.5L92,886c-6.3,0-11.5-5.1-11.6-11.4L80,859.2l76.6,1.1l58,14.5
				C221.3,876.5,220.1,886.5,213.1,886.5z"/>
		</g>
	</g>
	<path style="fill:#EA7068;" d="M368.5,366.4l31.4,2.5c15.5,1.2,27.1,14.8,25.9,30.4c-1.1,14-12.3,24.8-25.9,25.9l-31.5,2.5"/>
	<path style="fill:#2B2B2B;" d="M212.6,317.9c7,19,9.7,103.6,9.7,103.6c0,18.1,16.1,31.9,34,29.1l107.4-22.9
		c0,0-93.1-43.8-93.6-43.2S224,338.9,212.6,317.9z"/>
	<path style="fill:#8670BD;" d="M368.4,427.7l-106.1,8.4c-19.1,1.5-35.8-12.2-38.3-30.9l-0.4-3l-17.4-132.9
		c-2.8-21.4,12.3-41,33.6-43.8c21.4-2.8,41,12.3,43.8,33.6L301.1,392l-38.7-34l106.2,8.4"/>
	<path style="fill:#2B2B2B;" d="M292.7,119.1l41.3-2.3l3.3-7.3c6.4-14.3-4-30.4-19.7-30.4h-55.2c-13.1,0-23.2,11.6-21.3,24.6
		l11.3,79.4l23.7-42.9l1.5,23.8h0.1l0.3,12.1c0.2,6.7,5.7,12,12.4,12l16.9-0.1c15.3,0,27.6-12.4,27.6-27.6V153
		c0-3.6-2.9-6.6-6.5-6.6c-3.3,0-7.4,0-10.8,0c-4.3,0-8.4,2.3-10.6,6l-0.1,0.2c-2.2,3.6-6.1,5.8-10.3,5.8l-4.9,0.1
		c-3.9,0-7.1-3-7.2-6.8l-1-22.1C283.2,124,287.3,119.4,292.7,119.1z"/>
	<path style="fill:#FFFFFF;" d="M316.6,158.5c0,7.8,11.8,7,11.8-1.1L316.6,158.5z"/>
	<path style="fill:#EA7068;" d="M277.7,157.7l-6.7,0.5c-3.7,0.3-7-2.5-7.2-6.3l-0.7-10.5c-0.3-3.7,2.5-7,6.3-7.2l0,0
		c3.7-0.3,7,2.5,7.2,6.3L277.7,157.7z"/>
	<g>
		<path style="fill:#2B2B2B;" d="M356.3,332.9c-0.8,0-1.4-0.6-1.5-1.3c-1.9-18.3-23-53.1-23.2-53.5c-0.4-0.7-0.2-1.6,0.5-2.1
			c0.7-0.4,1.6-0.2,2.1,0.5c0.9,1.4,21.6,35.7,23.6,54.7c0.1,0.8-0.5,1.6-1.3,1.6C356.4,332.9,356.4,332.9,356.3,332.9z"/>
	</g>
	<g>
		<path style="fill:#2B2B2B;" d="M293.5,338.4c-0.7,0-1.4-0.6-1.5-1.3l-4.7-38c-0.1-0.8,0.5-1.6,1.3-1.7s1.6,0.5,1.7,1.3l4.7,38
			c0.1,0.8-0.5,1.6-1.3,1.7C293.6,338.4,293.6,338.4,293.5,338.4z"/>
	</g>
	<g>
		<path style="fill:#2B2B2B;" d="M270.1,596c-0.2,0-0.4,0-0.5-0.1c-0.8-0.3-1.2-1.2-0.9-1.9c25.1-66,46.8-144.2,47.1-145
			c0.2-0.8,1-1.3,1.8-1c0.8,0.2,1.3,1,1,1.8c-0.2,0.8-22,79.1-47.1,145.2C271.3,595.6,270.7,596,270.1,596z"/>
	</g>
</g>
<linearGradient id="SVGID_10_" gradientUnits="userSpaceOnUse" x1="-11103.6406" y1="615.1646" x2="-11103.6406" y2="508.3679" gradientTransform="matrix(-1 0 0 -1 -10194.5908 1392)">
	<stop  offset="0" style="stop-color:#FFD8A1"/>
	<stop  offset="0.9958" style="stop-color:#FFFFFF"/>
</linearGradient>
<path style="fill:url(#SVGID_10_);" d="M788.3,888.1c53.4,0,77.8-78.3,140.7-70.7c18.9,2.3,40-36.4,48.6-51
	c14.3-24.2,52.2-14.4,52.2,13.5v108.2H788.3z"/>
</svg>
